<?xml version="1.0" encoding="utf-8"?>
<svg width="895px" height="320px" viewbox="0 0 895 320" version="1.1" xmlns:xlink="http://www.w3.org/1999/xlink" xmlns="http://www.w3.org/2000/svg">
  <path d="M99.999 0L895 0L895 320L0 320L0 99.999Q0 97.5442 0.120453 95.0923Q0.240906 92.6404 0.481523 90.1974Q0.722139 87.7544 1.08234 85.3261Q1.44254 82.8978 1.92145 80.4902Q2.40037 78.0825 2.99684 75.7012Q3.59332 73.32 4.30592 70.9708Q5.01853 68.6217 5.84553 66.3103Q6.67254 63.999 7.61197 61.731Q8.5514 59.4631 9.60097 57.2439Q10.6506 55.0248 11.8078 52.8598Q12.965 50.6948 14.227 48.5892Q15.489 46.4837 16.8529 44.4425Q18.2167 42.4014 19.6791 40.4297Q21.1414 38.4579 22.6987 36.5603Q24.2561 34.6627 25.9046 32.8438Q27.5532 31.0249 29.289 29.289Q31.0249 27.5532 32.8438 25.9046Q34.6627 24.2561 36.5603 22.6987Q38.4579 21.1414 40.4297 19.679Q42.4014 18.2167 44.4425 16.8529Q46.4837 15.489 48.5892 14.227Q50.6948 12.965 52.8598 11.8078Q55.0248 10.6506 57.2439 9.60097Q59.4631 8.5514 61.731 7.61197Q63.999 6.67254 66.3103 5.84553Q68.6217 5.01853 70.9708 4.30592Q73.3199 3.59332 75.7012 2.99684Q78.0825 2.40037 80.4902 1.92145Q82.8978 1.44254 85.3261 1.08234Q87.7544 0.722139 90.1974 0.481523Q92.6404 0.240906 95.0923 0.120453Q97.5442 0 99.999 0L99.999 0Z" transform="matrix(-1 0 0 1 895 0)" id="Rectangle-Copy-2" fill="#5C6779" fill-opacity="0.0774042" fill-rule="evenodd" stroke="none" />
</svg>