<?xml version="1.0" encoding="utf-8"?>
<svg width="103px" height="40px" viewbox="0 0 103 40" version="1.1" xmlns:xlink="http://www.w3.org/1999/xlink" xmlns="http://www.w3.org/2000/svg">
  <path d="M11.4596 40C13.0815 40 14.5974 39.6651 16.0071 38.9954C17.4168 38.3257 18.637 37.3896 19.6678 36.1872L19.6678 36.1872L19.6678 39.2694L26.6481 39.2694L26.6481 0L19.6678 0L19.6678 18.7443C18.7431 17.618 17.5835 16.739 16.189 16.1073C14.7944 15.4756 13.2786 15.1598 11.6415 15.1598C9.38293 15.1598 7.37826 15.704 5.62748 16.7922C3.87671 17.8805 2.5011 19.3569 1.50066 21.2215C0.500221 23.086 0 25.2055 0 27.5799C0 30 0.515379 32.1461 1.54614 34.0183C2.57689 35.8904 3.96008 37.3554 5.6957 38.4132C7.43131 39.4711 9.35261 40 11.4596 40ZM13.5514 34.0411C12.3539 34.0411 11.2853 33.7634 10.3455 33.2078C9.40566 32.6523 8.67049 31.8912 8.13995 30.9247C7.60942 29.9582 7.34415 28.8585 7.34415 27.6256C7.34415 26.3775 7.61699 25.2626 8.16269 24.2809C8.70839 23.2991 9.44735 22.5267 10.3796 21.9635C11.3118 21.4004 12.3767 21.1188 13.5742 21.1188C14.7868 21.1188 15.8631 21.4004 16.8029 21.9635C17.7427 22.5267 18.4816 23.2953 19.0198 24.2695C19.5579 25.2436 19.8269 26.3547 19.8269 27.6028C19.8269 28.8357 19.5579 29.9392 19.0198 30.9133C18.4816 31.8874 17.7427 32.6523 16.8029 33.2078C15.8631 33.7634 14.7792 34.0411 13.5514 34.0411ZM37.7667 11.0274C38.5246 11.0274 39.2143 10.841 39.8358 10.4681C40.4573 10.0952 40.9537 9.58906 41.3251 8.9498C41.6964 8.31053 41.8821 7.61037 41.8821 6.84934C41.8821 6.0883 41.6964 5.39576 41.3251 4.77171C40.9537 4.14767 40.4573 3.64919 39.8358 3.27628C39.2143 2.90337 38.5246 2.71692 37.7667 2.71692C37.0088 2.71692 36.3153 2.90337 35.6862 3.27628C35.0571 3.64919 34.5531 4.14767 34.1742 4.77171C33.7952 5.39576 33.6057 6.0883 33.6057 6.84934C33.6057 7.61037 33.7952 8.31053 34.1742 8.9498C34.5531 9.58906 35.0571 10.0952 35.6862 10.4681C36.3153 10.841 37.0088 11.0274 37.7667 11.0274ZM41.2455 39.2694L41.2455 15.8904L34.2651 15.8904L34.2651 39.2694L41.2455 39.2694ZM55.8883 39.2694L55.8883 25.4338C55.8883 24.5205 56.0892 23.7024 56.4909 22.9794C56.8925 22.2564 57.4686 21.6857 58.2189 21.2671C58.9692 20.8485 59.8598 20.6392 60.8905 20.6392C62.4063 20.6392 63.6 21.1073 64.4716 22.0434C65.3432 22.9794 65.779 24.2846 65.779 25.9589L65.779 25.9589L65.779 39.2694L72.7594 39.2694L72.7594 24.4749C72.7594 22.6179 72.3729 20.9931 71.5998 19.6004C70.8267 18.2077 69.7619 17.1195 68.4052 16.3356C67.0485 15.5517 65.4759 15.1598 63.6872 15.1598C62.0653 15.1598 60.5836 15.4642 59.2421 16.073C57.9006 16.6819 56.7826 17.4886 55.8883 18.4931L55.8883 18.4931L55.8883 15.8904L48.908 15.8904L48.908 39.2694L55.8883 39.2694ZM91.1311 40C93.5868 40 95.815 39.4672 97.8159 38.4018C99.8168 37.3363 101.363 35.8599 102.454 33.9726L102.454 33.9726L97.4294 31.4383C96.5653 32.4733 95.6672 33.2268 94.735 33.6986C93.8028 34.1704 92.7303 34.4064 91.5177 34.4064C90.2292 34.4064 89.0999 34.159 88.1298 33.6644C87.1597 33.1697 86.4056 32.4809 85.8674 31.5981C85.3293 30.7153 85.0603 29.6803 85.0603 28.4931L85.0603 28.4931L102.909 28.4931C102.955 28.0974 102.981 27.8272 102.989 27.6826C102.996 27.538 103 27.3668 103 27.1689C103 24.7793 102.488 22.6864 101.465 20.8904C100.442 19.0943 99.0172 17.6902 97.1906 16.6781C95.3641 15.6659 93.2381 15.1598 90.8128 15.1598C88.9938 15.1598 87.3037 15.4756 85.7424 16.1073C84.1811 16.7389 82.8093 17.6217 81.6269 18.7557C80.4446 19.8896 79.5237 21.21 78.8643 22.7169C78.205 24.2237 77.8753 25.8447 77.8753 27.5799C77.8753 29.9391 78.4589 32.0548 79.626 33.9269C80.7932 35.7991 82.3735 37.2793 84.3668 38.3676C86.3601 39.4558 88.6149 40 91.1311 40ZM96.1333 24.6118L85.3104 24.6118C85.4165 23.7138 85.7045 22.9376 86.1744 22.2831C86.6443 21.6286 87.2658 21.1263 88.0388 20.7762C88.8119 20.4261 89.7062 20.2511 90.7218 20.2511C91.6768 20.2511 92.5332 20.4261 93.2912 20.7762C94.0491 21.1263 94.6743 21.6286 95.167 22.2831C95.6596 22.9376 95.9817 23.7138 96.1333 24.6118L96.1333 24.6118Z" id="dine" fill="#FFFFFF" stroke="none" />
</svg>